<svg width="313" height="73" viewBox="0 0 313 73" fill="none" xmlns="http://www.w3.org/2000/svg">
<path d="M27.3253 28.6715H17.7831V40.3824C17.7831 41.3462 17.8313 42.2378 17.9277 43.0571C18.0241 43.8282 18.241 44.5029 18.5783 45.0812C18.9157 45.6595 19.4217 46.1173 20.0964 46.4547C20.8193 46.7438 21.759 46.8884 22.9157 46.8884C23.494 46.8884 24.241 46.8402 25.1566 46.7438C26.1205 46.5992 26.8434 46.3101 27.3253 45.8764V54.9125C26.1205 55.3462 24.8675 55.6354 23.5663 55.78C22.2651 55.9245 20.988 55.9968 19.7349 55.9968C17.9036 55.9968 16.2169 55.8041 14.6747 55.4185C13.1325 55.033 11.7831 54.4306 10.6265 53.6113C9.46988 52.7438 8.55422 51.6354 7.87952 50.286C7.25301 48.9366 6.93976 47.298 6.93976 45.3703V28.6715H0V19.9968H6.93976V9.58719H17.7831V19.9968H27.3253V28.6715Z" fill="url(#paint0_linear_534_1491)"/>
<path d="M31.5345 37.5631C31.5345 34.7679 32.0405 32.2378 33.0525 29.9727C34.0646 27.7077 35.4381 25.78 37.173 24.1896C38.9561 22.5511 41.0284 21.298 43.3899 20.4306C45.7995 19.5631 48.3537 19.1294 51.0525 19.1294C53.7513 19.1294 56.2814 19.5631 58.6429 20.4306C61.0525 21.298 63.1248 22.5511 64.8597 24.1896C66.6429 25.78 68.0405 27.7077 69.0525 29.9727C70.0646 32.2378 70.5706 34.7679 70.5706 37.5631C70.5706 40.3583 70.0646 42.8884 69.0525 45.1535C68.0405 47.4185 66.6429 49.3703 64.8597 51.0089C63.1248 52.5992 61.0525 53.8282 58.6429 54.6956C56.2814 55.5631 53.7513 55.9968 51.0525 55.9968C48.3537 55.9968 45.7995 55.5631 43.3899 54.6956C41.0284 53.8282 38.9561 52.5992 37.173 51.0089C35.4381 49.3703 34.0646 47.4185 33.0525 45.1535C32.0405 42.8884 31.5345 40.3583 31.5345 37.5631ZM42.3778 37.5631C42.3778 40.2137 43.1248 42.3583 44.6188 43.9968C46.161 45.6354 48.3055 46.4547 51.0525 46.4547C53.7995 46.4547 55.92 45.6354 57.414 43.9968C58.9561 42.3583 59.7272 40.2137 59.7272 37.5631C59.7272 34.9125 58.9561 32.7679 57.414 31.1294C55.92 29.4908 53.7995 28.6715 51.0525 28.6715C48.3055 28.6715 46.161 29.4908 44.6188 31.1294C43.1248 32.7679 42.3778 34.9125 42.3778 37.5631Z" fill="url(#paint1_linear_534_1491)"/>
<path d="M113.825 52.1655C113.825 58.8161 112.138 63.8523 108.765 67.2739C105.439 70.7438 100.355 72.4788 93.5117 72.4788C90.3791 72.4788 87.2948 72.1173 84.2587 71.3944C81.2225 70.7197 78.4273 69.3703 75.8731 67.3462L81.8731 58.3824C83.5599 59.78 85.3189 60.8884 87.1502 61.7077C89.0297 62.527 91.0779 62.9366 93.2948 62.9366C96.6201 62.9366 99.0538 62.1173 100.596 60.4788C102.186 58.8884 102.982 56.8402 102.982 54.3342V50.9366H102.837C101.584 52.6233 100.018 53.8282 98.1382 54.5511C96.3069 55.2258 94.5719 55.5631 92.9334 55.5631C90.331 55.5631 87.9695 55.1294 85.849 54.2619C83.7285 53.3462 81.8972 52.0932 80.355 50.5029C78.8611 48.8643 77.7044 46.9366 76.8852 44.7197C76.0659 42.5029 75.6562 40.0691 75.6562 37.4185C75.6562 35.1053 76.0177 32.8402 76.7406 30.6233C77.5117 28.4065 78.5719 26.4547 79.9213 24.7679C81.3189 23.0812 83.0056 21.7318 84.9816 20.7197C86.9575 19.6595 89.1984 19.1294 91.7044 19.1294C93.2466 19.1294 94.6442 19.298 95.8972 19.6354C97.1984 19.9727 98.355 20.4065 99.3671 20.9366C100.379 21.4667 101.247 22.0691 101.97 22.7438C102.692 23.3703 103.271 23.9968 103.704 24.6233H103.849V19.9968H113.825V52.1655ZM86.4996 37.3462C86.4996 38.5029 86.7165 39.6113 87.1502 40.6715C87.584 41.6836 88.1864 42.5992 88.9575 43.4185C89.7767 44.1896 90.6924 44.8161 91.7044 45.298C92.7647 45.78 93.9213 46.0209 95.1743 46.0209C96.3791 46.0209 97.5117 45.78 98.5719 45.298C99.6322 44.8161 100.548 44.1896 101.319 43.4185C102.138 42.5992 102.765 41.6836 103.198 40.6715C103.632 39.6113 103.849 38.5029 103.849 37.3462C103.849 36.1896 103.632 35.1053 103.198 34.0932C102.765 33.033 102.138 32.1173 101.319 31.3462C100.548 30.527 99.6322 29.8764 98.5719 29.3944C97.5117 28.9125 96.3791 28.6715 95.1743 28.6715C93.9213 28.6715 92.7647 28.9125 91.7044 29.3944C90.6924 29.8764 89.7767 30.527 88.9575 31.3462C88.1864 32.1173 87.584 33.033 87.1502 34.0932C86.7165 35.1053 86.4996 36.1896 86.4996 37.3462Z" fill="url(#paint2_linear_534_1491)"/>
<path d="M155.744 49.0571C154.009 51.2739 151.816 52.9848 149.166 54.1896C146.515 55.3944 143.768 55.9968 140.925 55.9968C138.226 55.9968 135.672 55.5631 133.262 54.6956C130.901 53.8282 128.828 52.5992 127.045 51.0089C125.31 49.3703 123.937 47.4185 122.925 45.1535C121.913 42.8884 121.407 40.3583 121.407 37.5631C121.407 34.7679 121.913 32.2378 122.925 29.9727C123.937 27.7077 125.31 25.78 127.045 24.1896C128.828 22.5511 130.901 21.298 133.262 20.4306C135.672 19.5631 138.226 19.1294 140.925 19.1294C143.431 19.1294 145.696 19.5631 147.72 20.4306C149.792 21.298 151.527 22.5511 152.925 24.1896C154.371 25.78 155.479 27.7077 156.25 29.9727C157.021 32.2378 157.407 34.7679 157.407 37.5631V40.9607H132.25C132.684 43.033 133.624 44.6956 135.069 45.9486C136.515 47.1535 138.298 47.7559 140.419 47.7559C142.202 47.7559 143.696 47.3703 144.901 46.5992C146.154 45.78 147.238 44.7438 148.154 43.4908L155.744 49.0571ZM146.563 33.5872C146.612 31.7559 146.009 30.1896 144.756 28.8884C143.503 27.5872 141.889 26.9366 139.913 26.9366C138.708 26.9366 137.648 27.1294 136.732 27.5149C135.816 27.9004 135.021 28.4065 134.347 29.033C133.72 29.6113 133.214 30.3101 132.828 31.1294C132.491 31.9004 132.298 32.7197 132.25 33.5872H146.563Z" fill="url(#paint3_linear_534_1491)"/>
<path d="M187.929 28.6715H178.386V40.3824C178.386 41.3462 178.435 42.2378 178.531 43.0571C178.627 43.8282 178.844 44.5029 179.182 45.0812C179.519 45.6595 180.025 46.1173 180.7 46.4547C181.423 46.7438 182.362 46.8884 183.519 46.8884C184.097 46.8884 184.844 46.8402 185.76 46.7438C186.724 46.5992 187.447 46.3101 187.929 45.8764V54.9125C186.724 55.3462 185.471 55.6354 184.17 55.78C182.868 55.9245 181.591 55.9968 180.338 55.9968C178.507 55.9968 176.82 55.8041 175.278 55.4185C173.736 55.033 172.386 54.4306 171.23 53.6113C170.073 52.7438 169.158 51.6354 168.483 50.286C167.856 48.9366 167.543 47.298 167.543 45.3703V28.6715H160.603V19.9968H167.543V9.58719H178.386V19.9968H187.929V28.6715Z" fill="url(#paint4_linear_534_1491)"/>
<path d="M204.282 0.47876V24.7679H204.427C204.668 24.0932 205.078 23.4185 205.656 22.7438C206.234 22.0691 206.933 21.4667 207.752 20.9366C208.572 20.4065 209.535 19.9727 210.644 19.6354C211.752 19.298 212.957 19.1294 214.258 19.1294C217.005 19.1294 219.222 19.5631 220.909 20.4306C222.596 21.2498 223.897 22.4065 224.812 23.9004C225.776 25.3944 226.427 27.1535 226.764 29.1776C227.102 31.2017 227.27 33.3944 227.27 35.7559V55.1294H216.427V37.9245C216.427 36.9125 216.379 35.8764 216.282 34.8161C216.234 33.7077 216.017 32.6956 215.632 31.78C215.294 30.8643 214.74 30.1173 213.969 29.539C213.246 28.9607 212.186 28.6715 210.788 28.6715C209.391 28.6715 208.258 28.9366 207.391 29.4667C206.523 29.9486 205.849 30.6233 205.367 31.4908C204.933 32.3101 204.644 33.2498 204.499 34.3101C204.355 35.3703 204.282 36.4788 204.282 37.6354V55.1294H193.439V0.47876H204.282Z" fill="url(#paint5_linear_534_1491)"/>
<path d="M268.202 49.0571C266.467 51.2739 264.274 52.9848 261.623 54.1896C258.973 55.3944 256.226 55.9968 253.383 55.9968C250.684 55.9968 248.13 55.5631 245.72 54.6956C243.358 53.8282 241.286 52.5992 239.503 51.0089C237.768 49.3703 236.395 47.4185 235.383 45.1535C234.37 42.8884 233.864 40.3583 233.864 37.5631C233.864 34.7679 234.37 32.2378 235.383 29.9727C236.395 27.7077 237.768 25.78 239.503 24.1896C241.286 22.5511 243.358 21.298 245.72 20.4306C248.13 19.5631 250.684 19.1294 253.383 19.1294C255.889 19.1294 258.154 19.5631 260.178 20.4306C262.25 21.298 263.985 22.5511 265.383 24.1896C266.828 25.78 267.937 27.7077 268.708 29.9727C269.479 32.2378 269.864 34.7679 269.864 37.5631V40.9607H244.708C245.142 43.033 246.081 44.6956 247.527 45.9486C248.973 47.1535 250.756 47.7559 252.876 47.7559C254.66 47.7559 256.154 47.3703 257.358 46.5992C258.611 45.78 259.696 44.7438 260.611 43.4908L268.202 49.0571ZM259.021 33.5872C259.069 31.7559 258.467 30.1896 257.214 28.8884C255.961 27.5872 254.346 26.9366 252.37 26.9366C251.166 26.9366 250.105 27.1294 249.19 27.5149C248.274 27.9004 247.479 28.4065 246.804 29.033C246.178 29.6113 245.672 30.3101 245.286 31.1294C244.949 31.9004 244.756 32.7197 244.708 33.5872H259.021Z" fill="url(#paint6_linear_534_1491)"/>
<path d="M276.459 19.9968H287.302V25.6354H287.447C288.603 23.4667 289.977 21.8523 291.567 20.792C293.157 19.6836 295.157 19.1294 297.567 19.1294C298.194 19.1294 298.82 19.1535 299.447 19.2017C300.073 19.2498 300.651 19.3462 301.181 19.4908V29.3944C300.41 29.1535 299.639 28.9848 298.868 28.8884C298.145 28.7438 297.374 28.6715 296.555 28.6715C294.483 28.6715 292.844 28.9607 291.639 29.539C290.434 30.1173 289.495 30.9366 288.82 31.9968C288.194 33.0089 287.784 34.2378 287.591 35.6836C287.398 37.1294 287.302 38.7197 287.302 40.4547V55.1294H276.459V19.9968Z" fill="url(#paint7_linear_534_1491)"/>
<path d="M299.478 48.9125C299.478 47.9968 299.646 47.1294 299.984 46.3101C300.321 45.4908 300.779 44.792 301.357 44.2137C301.984 43.5872 302.706 43.1053 303.526 42.7679C304.345 42.4306 305.213 42.2619 306.128 42.2619C307.044 42.2619 307.911 42.4306 308.731 42.7679C309.55 43.1053 310.249 43.5872 310.827 44.2137C311.453 44.792 311.935 45.4908 312.273 46.3101C312.61 47.1294 312.779 47.9968 312.779 48.9125C312.779 49.8282 312.61 50.6956 312.273 51.5149C311.935 52.3342 311.453 53.0571 310.827 53.6836C310.249 54.2619 309.55 54.7197 308.731 55.0571C307.911 55.3944 307.044 55.5631 306.128 55.5631C305.213 55.5631 304.345 55.3944 303.526 55.0571C302.706 54.7197 301.984 54.2619 301.357 53.6836C300.779 53.0571 300.321 52.3342 299.984 51.5149C299.646 50.6956 299.478 49.8282 299.478 48.9125Z" fill="url(#paint8_linear_534_1491)"/>
<defs>
<linearGradient id="paint0_linear_534_1491" x1="-74.229" y1="36.0531" x2="342.94" y2="36.0531" gradientUnits="userSpaceOnUse">
<stop offset="0.275171" stop-color="#7A5CE6"/>
<stop offset="0.495968" stop-color="#F82BA6"/>
<stop offset="0.838668" stop-color="#FF9E1A"/>
</linearGradient>
<linearGradient id="paint1_linear_534_1491" x1="-74.229" y1="36.0531" x2="342.94" y2="36.0531" gradientUnits="userSpaceOnUse">
<stop offset="0.275171" stop-color="#7A5CE6"/>
<stop offset="0.495968" stop-color="#F82BA6"/>
<stop offset="0.838668" stop-color="#FF9E1A"/>
</linearGradient>
<linearGradient id="paint2_linear_534_1491" x1="-74.229" y1="36.0531" x2="342.94" y2="36.0531" gradientUnits="userSpaceOnUse">
<stop offset="0.275171" stop-color="#7A5CE6"/>
<stop offset="0.495968" stop-color="#F82BA6"/>
<stop offset="0.838668" stop-color="#FF9E1A"/>
</linearGradient>
<linearGradient id="paint3_linear_534_1491" x1="-74.229" y1="36.0531" x2="342.94" y2="36.0531" gradientUnits="userSpaceOnUse">
<stop offset="0.275171" stop-color="#7A5CE6"/>
<stop offset="0.495968" stop-color="#F82BA6"/>
<stop offset="0.838668" stop-color="#FF9E1A"/>
</linearGradient>
<linearGradient id="paint4_linear_534_1491" x1="-74.229" y1="36.0531" x2="342.94" y2="36.0531" gradientUnits="userSpaceOnUse">
<stop offset="0.275171" stop-color="#7A5CE6"/>
<stop offset="0.495968" stop-color="#F82BA6"/>
<stop offset="0.838668" stop-color="#FF9E1A"/>
</linearGradient>
<linearGradient id="paint5_linear_534_1491" x1="-74.229" y1="36.0531" x2="342.94" y2="36.0531" gradientUnits="userSpaceOnUse">
<stop offset="0.275171" stop-color="#7A5CE6"/>
<stop offset="0.495968" stop-color="#F82BA6"/>
<stop offset="0.838668" stop-color="#FF9E1A"/>
</linearGradient>
<linearGradient id="paint6_linear_534_1491" x1="-74.229" y1="36.0531" x2="342.94" y2="36.0531" gradientUnits="userSpaceOnUse">
<stop offset="0.275171" stop-color="#7A5CE6"/>
<stop offset="0.495968" stop-color="#F82BA6"/>
<stop offset="0.838668" stop-color="#FF9E1A"/>
</linearGradient>
<linearGradient id="paint7_linear_534_1491" x1="-74.229" y1="36.0531" x2="342.94" y2="36.0531" gradientUnits="userSpaceOnUse">
<stop offset="0.275171" stop-color="#7A5CE6"/>
<stop offset="0.495968" stop-color="#F82BA6"/>
<stop offset="0.838668" stop-color="#FF9E1A"/>
</linearGradient>
<linearGradient id="paint8_linear_534_1491" x1="-74.229" y1="36.0531" x2="342.94" y2="36.0531" gradientUnits="userSpaceOnUse">
<stop offset="0.275171" stop-color="#7A5CE6"/>
<stop offset="0.495968" stop-color="#F82BA6"/>
<stop offset="0.838668" stop-color="#FF9E1A"/>
</linearGradient>
</defs>
</svg>
