<svg width="41" height="41" viewBox="0 0 41 41" fill="none" xmlns="http://www.w3.org/2000/svg">
<path fill-rule="evenodd" clip-rule="evenodd" d="M27.2938 5.00108L25.4046 4.73556C23.7748 4.50649 22.4832 4.32497 21.4301 4.26371C20.3533 4.20107 19.427 4.25595 18.5456 4.55945C17.1163 5.05159 15.8795 5.98359 15.0125 7.22186C14.4778 7.98548 14.1697 8.86077 13.9331 9.91314C13.7017 10.9423 13.5202 12.2338 13.2912 13.8637L12.1867 21.7222C11.9577 23.352 11.7761 24.6436 11.7149 25.6966C11.6522 26.7734 11.7071 27.6997 12.0106 28.5811C12.5028 30.0104 13.4348 31.2472 14.673 32.1143C15.4367 32.649 16.3119 32.957 17.3643 33.1936C18.3934 33.425 19.685 33.6065 21.3148 33.8356L21.3148 33.8356L23.2041 34.1011C24.8339 34.3302 26.1255 34.5117 27.1785 34.5729C28.2553 34.6356 29.1816 34.5807 30.0631 34.2772C31.4924 33.785 32.7292 32.8531 33.5962 31.6148C34.1309 30.8512 34.439 29.9759 34.6756 28.9235C34.9069 27.8944 35.0884 26.6029 35.3175 24.9731L35.3175 24.973L36.422 17.1145L36.422 17.1143C36.651 15.4846 36.8325 14.193 36.8938 13.1401C36.9564 12.0632 36.9016 11.1369 36.5981 10.2555C36.1059 8.82622 35.1739 7.58942 33.9356 6.72238C33.172 6.18768 32.2967 5.87961 31.2444 5.64301C30.2153 5.41164 28.9237 5.23012 27.2938 5.00108Z" fill="#00A0AF"/>
<path d="M16.7883 35.9949C16.7823 35.9935 18.2832 35.9921 18.2771 35.9907C19.7835 35.9952 14.3518 35.3071 13.232 34.5045C11.5811 33.3215 10.3386 31.6338 9.68246 29.6836C9.23738 28.3606 9.19016 27.0552 9.2619 25.793C9.32943 24.6048 9.5243 23.1859 9.74656 21.5675L10.8893 13.2456C11.1115 11.6273 11.3063 10.2083 11.5614 9.04717C11.5728 8.99511 11.5845 8.94305 11.5964 8.89097C9.94405 8.93664 8.8823 9.07952 8.00501 9.52652C6.87079 10.1044 5.94864 11.0266 5.37073 12.1608C4.71373 13.4502 4.71373 15.1382 4.71373 18.5141V26.3504C4.71373 29.7264 4.71373 31.4143 5.37073 32.7038C5.94864 33.838 6.87079 34.7601 8.00501 35.338C9.29445 35.995 10.9824 35.995 14.3584 35.995H16.1667C16.3806 35.995 16.5877 35.995 16.7883 35.9949Z" fill="#00A0AF"/>
<path fill-rule="evenodd" clip-rule="evenodd" d="M12.4703 8.17428C12.6919 8.44453 12.7761 8.80211 12.6982 9.14282C12.687 9.19165 12.6761 9.24059 12.6653 9.28965C12.422 10.3972 12.2333 11.766 12.009 13.3994L10.8663 21.7213C10.642 23.3546 10.4547 24.7237 10.3903 25.8571C10.3225 27.0507 10.3737 28.1936 10.7537 29.3232C11.3353 31.0518 12.435 32.5429 13.8903 33.5859C13.8903 33.5859 13.898 33.5912 13.9138 33.6003C13.9305 33.6099 13.9537 33.6224 13.9843 33.6373C14.0466 33.6676 14.1285 33.7028 14.232 33.7419C14.4401 33.8206 14.7018 33.9028 15.0049 33.9864C15.611 34.1534 16.3181 34.3085 16.969 34.4436C17.159 34.483 17.3485 34.5216 17.5297 34.5584C17.9426 34.6424 18.3127 34.7177 18.5484 34.7749C18.6345 34.7958 18.7353 34.8219 18.8265 34.8525C18.8676 34.8663 18.9463 34.8939 19.0323 34.9379C19.0739 34.9591 19.1535 35.0023 19.2405 35.0723C19.3049 35.124 19.5101 35.2962 19.6127 35.6087C19.7518 36.0326 19.6222 36.4457 19.3859 36.7144C19.2087 36.9159 19.0089 36.9991 18.9427 37.0252C18.7907 37.0853 18.6541 37.1013 18.6135 37.106C18.5051 37.1187 18.3864 37.121 18.2882 37.121L18.2706 37.1212L18.2195 37.1215L18.049 37.122L17.022 37.1241L16.8556 37.1246L16.8147 37.1248C16.8063 37.125 16.7978 37.1251 16.7893 37.1251L14.3086 37.1253C12.6628 37.1253 11.3585 37.1253 10.3072 37.0394C9.23215 36.9516 8.32251 36.7683 7.4919 36.3451C6.14501 35.6588 5.04996 34.5638 4.36369 33.2169C3.94047 32.3863 3.75721 31.4766 3.66938 30.4016C3.58348 29.3503 3.58349 28.046 3.5835 26.4001V18.4644C3.58349 16.8186 3.58348 15.5143 3.66938 14.463C3.75721 13.3879 3.94047 12.4783 4.36369 11.6477C5.04996 10.3008 6.14501 9.20575 7.4919 8.51948C8.61239 7.94856 9.8981 7.80725 11.5651 7.76117C11.9145 7.75152 12.2487 7.90403 12.4703 8.17428ZM11.8419 34.8491C10.3603 33.5789 9.24192 31.9186 8.61123 30.044C8.1011 28.5276 8.05785 27.0597 8.13349 25.7288C8.20358 24.4955 8.40352 23.0398 8.62175 21.4509L9.77469 13.0546C9.91928 12.0015 10.0558 11.0068 10.2086 10.1047C9.4427 10.1852 8.93614 10.3206 8.51813 10.5336C7.59657 11.0031 6.84733 11.7524 6.37777 12.6739C6.14398 13.1328 5.99874 13.7118 5.92233 14.6471C5.84484 15.5955 5.84396 16.8075 5.84396 18.5141V26.3504C5.84396 28.057 5.84484 29.269 5.92233 30.2175C5.99874 31.1528 6.14398 31.7318 6.37777 32.1906C6.84733 33.1122 7.59657 33.8614 8.51813 34.331C8.97696 34.5648 9.55602 34.71 10.4913 34.7864C10.8894 34.819 11.3339 34.838 11.8419 34.8491Z" fill="#00A0AF"/>
</svg>
