<svg width="41" height="41" viewBox="0 0 41 41" fill="none" xmlns="http://www.w3.org/2000/svg">
<path d="M26.9356 5.21449C24.7651 5.18309 22.5019 5.81223 20.7479 7.57868C18.9804 5.81567 16.6955 5.21436 14.5838 5.21436C9.33661 5.21436 4.0835 9.56178 4.0835 15.7143C4.0835 21.6465 7.87774 26.5852 11.6305 29.9427C13.5293 31.6416 15.4767 32.9903 17.0583 33.9191C17.8486 34.3832 18.5609 34.7504 19.1422 35.0061C19.4317 35.1335 19.7035 35.2398 19.9456 35.3166C20.1561 35.3833 20.453 35.4642 20.7507 35.4642C21.0483 35.4642 21.3452 35.3833 21.5558 35.3166C21.7978 35.2398 22.0696 35.1335 22.3592 35.0061C22.9404 34.7504 23.6527 34.3832 24.443 33.9191C26.0246 32.9903 27.972 31.6416 29.8708 29.9427C33.6236 26.5852 37.4178 21.6465 37.4178 15.7143C37.4178 9.5472 32.1525 5.28998 26.9356 5.21449Z" fill="#FF401A"/>
</svg>
