<svg width="295" height="64" viewBox="0 0 295 64" fill="none" xmlns="http://www.w3.org/2000/svg">
<path d="M16.3951 32.0415C13.4616 32.5458 10.4438 32.1034 7.77859 30.7783C5.11333 29.4533 2.93895 27.3144 1.57024 24.6713C0.201536 22.0282 -0.290463 19.0181 0.165479 16.0768C0.621422 13.1355 2.00164 10.4156 4.10631 8.3109C6.21098 6.20623 8.93087 4.82601 11.8722 4.37007C14.8135 3.91413 17.8236 4.40613 20.4667 5.77483C23.1098 7.14354 25.2487 9.31792 26.5737 11.9832C27.8988 14.6484 28.3412 17.6662 27.8369 20.5996C27.343 23.4542 25.9784 26.0861 23.9299 28.1345C21.8815 30.1829 19.2496 31.5476 16.3951 32.0415ZM15.9007 11.5592C14.7166 11.2328 13.4672 11.2256 12.2795 11.5385C11.0918 11.8514 10.0081 12.4731 9.13859 13.3405C8.26903 14.208 7.64461 15.2901 7.32878 16.477C7.01296 17.664 7.01699 18.9133 7.34047 20.0982C7.65061 21.2479 8.25656 22.2963 9.09798 23.139C9.93939 23.9816 10.9869 24.5891 12.1362 24.9009C13.3228 25.2307 14.5758 25.2396 15.767 24.9266C16.9582 24.6136 18.045 23.9899 18.9163 23.1194C19.7875 22.2488 20.4121 21.1626 20.726 19.9716C21.04 18.7807 21.0322 17.5277 20.7034 16.3407C20.3938 15.1953 19.7915 14.1502 18.9556 13.3082C18.1197 12.4661 17.0791 11.856 15.936 11.538L15.9007 11.5592Z" fill="#4666E8"/>
<path d="M52.2602 32.2604C51.3835 32.2599 50.5119 32.1266 49.6752 31.8648L39.7872 28.7713C38.7046 28.4312 37.6996 27.8811 36.8297 27.1525C35.9598 26.4238 35.242 25.5309 34.7172 24.5248C34.1925 23.5186 33.8712 22.419 33.7716 21.2886C33.672 20.1582 33.7961 19.0193 34.1369 17.9369L37.2304 8.04888C37.5705 6.9663 38.1206 5.96134 38.8492 5.09142C39.5779 4.2215 40.4708 3.50367 41.4769 2.97895C42.4831 2.45424 43.5828 2.13291 44.7131 2.03332C45.8435 1.93374 46.9824 2.05786 48.0648 2.39859L57.9528 5.49213C60.1381 6.18064 61.9607 7.70849 63.0202 9.74001C64.0796 11.7715 64.2893 14.1405 63.6031 16.3266L60.5025 26.2146C59.9509 27.9683 58.854 29.5002 57.3716 30.5875C55.8893 31.6749 54.0986 32.2609 52.2602 32.2604ZM51.794 25.1128C52.1893 25.2346 52.6167 25.1953 52.9831 25.0035C53.3495 24.8117 53.6253 24.4829 53.7504 24.0886L56.844 14.2006C56.9063 14.0059 56.9294 13.8007 56.9119 13.597C56.8944 13.3933 56.8367 13.1951 56.7421 13.0138C56.6475 12.8325 56.518 12.6718 56.3609 12.5409C56.2038 12.41 56.0223 12.3116 55.8269 12.2513L45.9389 9.15069C45.5437 9.03906 45.1205 9.08767 44.7608 9.28598C44.4012 9.48429 44.1343 9.81632 44.0178 10.2101L40.9172 20.0981C40.856 20.2934 40.834 20.4987 40.8524 20.7025C40.8708 20.9063 40.9292 21.1044 41.0244 21.2855C41.1195 21.4666 41.2495 21.6272 41.4069 21.7579C41.5642 21.8887 41.7459 21.9871 41.9413 22.0475L51.794 25.1128Z" fill="#00A0AF"/>
<path d="M29.1012 62.546C17.0732 61.7197 6.75432 53.668 2.16346 42.5016L1.81031 41.6612C1.64015 41.3153 1.56008 40.9322 1.57755 40.5471C1.59501 40.1621 1.70944 39.7877 1.91022 39.4587C2.11099 39.1297 2.39161 38.8568 2.72604 38.6652C3.06047 38.4736 3.43787 38.3696 3.82323 38.3628H58.7864C59.1591 38.3571 59.5274 38.444 59.8583 38.6157C60.1891 38.7873 60.4722 39.0384 60.6822 39.3464C60.8922 39.6543 61.0225 40.0096 61.0614 40.3803C61.1003 40.751 61.0467 41.1256 60.9053 41.4705L60.199 43.2432C57.7252 49.3376 53.3816 54.4899 47.7933 57.9586C42.2051 61.4272 35.6604 63.0335 29.1012 62.546ZM12.8566 45.4398C12.7505 45.4388 12.6462 45.4677 12.5557 45.5232C12.4652 45.5787 12.3922 45.6586 12.3451 45.7537C12.2979 45.8488 12.2785 45.9552 12.289 46.0608C12.2995 46.1665 12.3396 46.267 12.4046 46.3509C14.6585 49.2143 17.5327 51.5289 20.8108 53.1204C24.089 54.712 27.6855 55.5389 31.3295 55.5389C34.9736 55.5389 38.5701 54.712 41.8482 53.1204C45.1264 51.5289 48.0006 49.2143 50.2545 46.3509C50.3171 46.2658 50.3549 46.165 50.3637 46.0597C50.3726 45.9545 50.3521 45.8488 50.3045 45.7545C50.257 45.6601 50.1843 45.5808 50.0944 45.5252C50.0045 45.4697 49.901 45.4401 49.7954 45.4398H12.8566Z" fill="#FF9E1A"/>
<path d="M293.95 35.0533C293.556 34.8491 293.106 34.7815 292.67 34.8611C292.233 34.9408 291.836 35.1631 291.54 35.4933C291.29 35.8135 290.978 36.0797 290.622 36.2757C290.266 36.4716 289.874 36.5933 289.47 36.6333C288.66 36.6333 288.08 36.2733 288.08 34.6333C288.077 33.8705 288.175 33.1106 288.37 32.3733L289.32 27.6333L291.8 16.2533C291.9 15.9149 291.926 15.5592 291.876 15.2099C291.827 14.8607 291.703 14.5261 291.514 14.2286C291.324 13.9311 291.073 13.6776 290.778 13.4852C290.482 13.2929 290.149 13.166 289.8 13.1133C289.448 13.0041 289.076 12.9711 288.71 13.0165C288.344 13.0619 287.992 13.1847 287.677 13.3767C287.362 13.5687 287.091 13.8255 286.883 14.1301C286.675 14.4347 286.534 14.7801 286.47 15.1433L286.4 15.5033C285.532 14.4406 284.426 13.5972 283.172 13.0413C281.918 12.4854 280.55 12.2325 279.18 12.3033C270.96 12.3033 264.01 19.8733 263.74 29.1733C259.01 34.2333 255.6 36.1733 253.25 36.1733C251.25 36.1733 250.62 35.0033 251.25 31.8633L253.36 21.8633L254.09 18.2933H261.24C261.596 18.3207 261.953 18.2721 262.288 18.1506C262.624 18.0291 262.929 17.8376 263.185 17.5887C263.44 17.3399 263.64 17.0394 263.77 16.7074C263.9 16.3754 263.958 16.0195 263.94 15.6633C263.965 15.293 263.911 14.9217 263.78 14.5742C263.65 14.2268 263.447 13.9112 263.184 13.6488C262.922 13.3864 262.606 13.1832 262.259 13.0529C261.912 12.9226 261.54 12.8682 261.17 12.8933H255.17L256.11 8.51328C256.62 6.40328 255.46 5.09328 253.49 5.09328C252.875 5.0492 252.265 5.22665 251.77 5.5935C251.275 5.96035 250.927 6.49237 250.79 7.09328L249.55 12.9333H247.21C246.856 12.9058 246.5 12.9542 246.166 13.0752C245.831 13.1961 245.527 13.387 245.272 13.6349C245.018 13.8828 244.819 14.1821 244.689 14.5129C244.56 14.8438 244.502 15.1984 244.52 15.5533C244.495 15.9239 244.55 16.2957 244.68 16.6436C244.81 16.9915 245.013 17.3076 245.275 17.5708C245.537 17.8339 245.853 18.0381 246.2 18.1696C246.548 18.3011 246.919 18.3569 247.29 18.3333H248.47L247.73 21.9033L245.93 30.2633C243.582 32.4379 240.835 34.136 237.84 35.2633C238.632 34.1223 239.086 32.7809 239.15 31.3933C239.15 26.3933 235.36 23.3933 233.98 19.2933C233.32 17.4633 233.47 16.2233 234.05 15.4233C234.362 15.0751 234.745 14.7971 235.172 14.6075C235.6 14.4179 236.062 14.321 236.53 14.3233C238.21 14.3233 239.01 13.5233 239.01 11.9933C239.01 10.4633 238.01 9.51328 235.95 9.51328C233.03 9.51328 229.89 12.0633 226.1 16.9533L220.92 23.3033C217.42 27.6033 216.11 30.3033 216.11 32.8533C216.108 33.4281 216.169 34.0014 216.29 34.5633C215.385 35.45 214.223 36.0276 212.97 36.2133C211.44 36.2133 210.92 34.9733 211.44 32.5633L212.44 27.5633H212.36L214.99 15.3833C215.103 15.0406 215.136 14.6762 215.084 14.319C215.033 13.9617 214.899 13.6213 214.693 13.3245C214.488 13.0278 214.216 12.7829 213.9 12.6092C213.583 12.4354 213.231 12.3375 212.87 12.3233C212.514 12.2238 212.141 12.2031 211.776 12.2627C211.412 12.3223 211.065 12.4607 210.759 12.6682C210.453 12.8758 210.197 13.1475 210.007 13.4644C209.817 13.7814 209.699 14.1359 209.66 14.5033L207.55 24.2833V24.1333C206.31 31.0633 202.44 35.8033 197.78 35.8033C195.08 35.8033 193.54 34.0533 194.2 30.6233L197.47 15.5033C197.577 15.1524 197.604 14.7823 197.551 14.4194C197.498 14.0566 197.366 13.7099 197.163 13.4042C196.961 13.0985 196.693 12.8413 196.38 12.651C196.066 12.4607 195.715 12.3419 195.35 12.3033C195.008 12.2038 194.649 12.1776 194.296 12.2265C193.943 12.2755 193.604 12.3983 193.302 12.5871C193 12.7759 192.742 13.0264 192.543 13.3221C192.344 13.6179 192.21 13.9522 192.15 14.3033L188.79 29.7633V29.9733C186.59 31.7133 184.09 33.5433 181.64 35.1633L185.87 15.6833C186.39 13.6833 185.29 12.2633 183.32 12.2633C182.691 12.1878 182.058 12.3516 181.544 12.7222C181.031 13.0928 180.676 13.6429 180.55 14.2633L180.33 15.3533C178.87 13.3533 176.33 12.2233 173.11 12.2233C164.72 12.2233 157.65 20.3133 157.65 29.7933C157.652 30.4179 157.685 31.042 157.75 31.6633C153.959 34.6361 149.288 36.2647 144.47 36.2933C138.47 36.2933 134.99 33.1633 134.99 27.6933C134.99 21.6333 138.93 17.3333 144.54 17.3333C147.83 17.3333 150.16 18.7933 150.16 21.3333C150.16 23.8733 148.05 25.4133 144.91 25.4133C143.707 25.3518 142.512 25.1811 141.34 24.9033C141.031 24.8071 140.706 24.7762 140.385 24.8126C140.064 24.849 139.754 24.9518 139.474 25.1145C139.195 25.2772 138.952 25.4962 138.762 25.7577C138.572 26.0192 138.439 26.3174 138.37 26.6333C137.86 28.3133 138.44 29.3333 140.12 29.8433C141.689 30.2681 143.305 30.4899 144.93 30.5033C151.42 30.5033 155.87 26.8533 155.87 21.3133C155.87 15.9833 151.35 12.3133 144.64 12.3133C142.66 12.2641 140.691 12.6058 138.843 13.3188C136.996 14.0317 135.308 15.102 133.874 16.4683C132.441 17.8346 131.291 19.4702 130.491 21.2813C129.691 23.0925 129.255 25.0437 129.21 27.0233C128.44 26.9964 127.688 26.7854 127.016 26.4078C126.344 26.0302 125.773 25.4972 125.35 24.8533L126.35 19.9633C126.556 19.0073 126.653 18.0311 126.64 17.0533C126.64 13.9133 125.48 12.2333 123.22 12.2333C120.96 12.2333 119.22 13.9833 119.22 18.5833C119.213 20.3641 119.483 22.1353 120.02 23.8333L119.59 25.9533C118.2 32.4433 115.94 36.1633 112.8 36.1633C110.47 36.1633 109.16 33.9033 109.16 30.0333C109.131 28.3483 109.326 26.6669 109.74 25.0333L111.86 15.4733C111.95 15.1219 111.962 14.7552 111.897 14.3984C111.832 14.0417 111.691 13.7031 111.483 13.406C111.275 13.1088 111.005 12.86 110.693 12.6766C110.38 12.4932 110.031 12.3795 109.67 12.3433C107.84 12.0433 106.75 12.7033 106.39 14.3433L104.12 24.7733C103.932 25.5142 103.811 26.2706 103.76 27.0333C102.37 32.5033 99.97 36.1533 97.05 36.1533C94.79 36.1533 93.62 33.8933 93.62 30.0933C93.5884 28.3752 93.7834 26.6604 94.2 24.9933L96.2 15.4333C96.2963 15.0876 96.3165 14.725 96.2591 14.3708C96.2017 14.0165 96.068 13.6789 95.8674 13.3813C95.6668 13.0837 95.404 12.8332 95.0971 12.6471C94.7902 12.4609 94.4466 12.3437 94.09 12.3033C93.7379 12.2018 93.3687 12.1735 93.0052 12.2204C92.6417 12.2672 92.2917 12.388 91.9768 12.5755C91.6619 12.7629 91.3888 13.013 91.1743 13.3102C90.9599 13.6073 90.8086 13.9453 90.73 14.3033L88.73 23.7833C88.2476 25.913 88.0028 28.0896 88 30.2733C88 37.2033 91 41.1433 96.32 41.1433C97.9485 41.1395 99.5496 40.724 100.974 39.9355C102.399 39.147 103.602 38.0111 104.47 36.6333C105.85 39.6999 108.33 41.2333 111.91 41.2333C117.82 41.2333 122.19 36.4933 124.31 29.7133C125.759 30.6664 127.467 31.1485 129.2 31.0933H129.6C130.99 37.3933 136.38 41.4733 143.82 41.4733C149.308 41.471 154.635 39.6178 158.94 36.2133C159.701 37.8107 160.916 39.1484 162.433 40.059C163.95 40.9697 165.702 41.4129 167.47 41.3333C168.963 41.3562 170.445 41.0695 171.822 40.4912C173.199 39.9129 174.441 39.0556 175.47 37.9733L175.33 38.7033C172.99 49.2833 168.76 54.0233 164.61 54.0233C162.93 54.0233 162.05 53.2933 162.05 51.8333C162.05 50.3733 163.58 48.9933 167.3 47.3133C167.779 47.095 168.153 46.6963 168.341 46.2039C168.528 45.7114 168.513 45.165 168.3 44.6833C168.103 44.1842 167.719 43.7822 167.229 43.5635C166.739 43.3447 166.183 43.3267 165.68 43.5133C159.26 45.9233 156.56 48.8433 156.56 52.4133C156.56 56.2133 159.33 58.9133 163.93 58.9133C171.44 58.9133 177.57 52.5633 180.48 40.9133C183.1 39.2433 186.01 37.1533 188.7 35.0533C189.35 38.9133 192.06 41.2033 196.34 41.2033C198.205 41.227 200.044 40.7691 201.681 39.8739C203.317 38.9787 204.694 37.6766 205.68 36.0933C205.97 39.5233 208.01 41.2033 211.8 41.2033C214.312 41.0883 216.685 40.0146 218.43 38.2033C220.35 40.2033 223.48 41.4233 227.49 41.4233H229.75C235.387 41.389 240.857 39.506 245.32 36.0633C245.61 39.6433 248.05 41.2733 251.68 41.2733C254.92 41.2733 258.89 39.8533 264.44 34.2733C265.74 38.6833 269.04 41.3433 273.67 41.3433C275.426 41.3383 277.157 40.9267 278.727 40.1407C280.297 39.3548 281.664 38.2159 282.72 36.8133C283.23 39.7333 285.34 41.1933 288.19 41.1933C289.48 41.2324 290.755 40.9033 291.866 40.2446C292.976 39.5858 293.876 38.6246 294.46 37.4733C294.89 36.3733 294.75 35.5633 293.95 35.0533ZM177.95 25.9433C176.78 31.8433 172.95 36.3733 168.61 36.3733C165.47 36.3733 163.5 33.8933 163.5 29.5133C163.5 22.8733 167.88 17.1833 173.13 17.1833C176.42 17.1833 178.31 19.3033 178.31 23.0233C178.274 24.0063 178.147 24.9839 177.93 25.9433H177.95ZM227.58 36.4433C224.73 36.4433 222.18 35.0533 222.18 32.0633C222.18 30.3133 223.13 28.2733 225.68 25.1333L229.47 20.2533C229.47 23.8933 233.63 28.2533 233.63 31.8433C233.61 34.4733 231.28 36.4433 227.56 36.4433H227.58ZM284.05 25.9433C282.88 31.9433 279.05 36.3733 274.71 36.3733C271.57 36.3733 269.6 33.8133 269.6 29.4433C269.6 22.7333 273.98 17.1833 279.23 17.1833C282.51 17.1833 284.34 19.3733 284.34 23.0933C284.346 24.052 284.242 25.0083 284.03 25.9433H284.05Z" fill="#4667E8"/>
</svg>
