<svg width="18" height="13" viewBox="0 0 18 13" fill="none" xmlns="http://www.w3.org/2000/svg">
<path fill-rule="evenodd" clip-rule="evenodd" d="M15.6679 0.45704C16.4022 0.658549 16.9805 1.2523 17.1768 2.0063C17.5335 3.37285 17.5335 6.22415 17.5335 6.22415C17.5335 6.22415 17.5335 9.07536 17.1768 10.442C16.9805 11.196 16.4022 11.7898 15.6679 11.9914C14.3371 12.3575 9.00013 12.3575 9.00013 12.3575C9.00013 12.3575 3.66321 12.3575 2.3323 11.9914C1.59795 11.7898 1.01962 11.196 0.823354 10.442C0.466797 9.07536 0.466797 6.22415 0.466797 6.22415C0.466797 6.22415 0.466797 3.37285 0.823354 2.0063C1.01962 1.2523 1.59795 0.658549 2.3323 0.45704C3.66321 0.0908203 9.00013 0.0908203 9.00013 0.0908203C9.00013 0.0908203 14.3371 0.0908203 15.6679 0.45704ZM7.40015 3.8241V9.15743L11.6668 6.49087L7.40015 3.8241Z" fill="#4667E8"/>
</svg>
