<svg width="18" height="18" viewBox="0 0 18 18" fill="none" xmlns="http://www.w3.org/2000/svg">
<path fill-rule="evenodd" clip-rule="evenodd" d="M9.00069 0.424316C6.68315 0.424316 6.3923 0.43445 5.48207 0.475872C4.57362 0.517473 3.95352 0.661297 3.41094 0.872321C2.84969 1.09028 2.37359 1.38184 1.89928 1.85633C1.42461 2.33065 1.13305 2.80674 0.91438 3.36781C0.702822 3.91057 0.55882 4.53085 0.517931 5.43895C0.47722 6.34918 0.466553 6.6402 0.466553 8.95774C0.466553 11.2753 0.476864 11.5652 0.518109 12.4755C0.559887 13.3839 0.703711 14.004 0.914557 14.5466C1.13269 15.1078 1.42425 15.5839 1.89875 16.0583C2.37288 16.5329 2.84898 16.8252 3.40987 17.0432C3.95281 17.2542 4.57308 17.398 5.48136 17.4396C6.39159 17.481 6.68226 17.4912 8.99962 17.4912C11.3173 17.4912 11.6073 17.481 12.5175 17.4396C13.426 17.398 14.0468 17.2542 14.5897 17.0432C15.1508 16.8252 15.6262 16.5329 16.1003 16.0583C16.575 15.5839 16.8665 15.1078 17.0852 14.5468C17.295 14.004 17.439 13.3837 17.4817 12.4756C17.5226 11.5654 17.5332 11.2753 17.5332 8.95774C17.5332 6.6402 17.5226 6.34936 17.4817 5.43912C17.439 4.53067 17.295 3.91057 17.0852 3.36799C16.8665 2.80674 16.575 2.33065 16.1003 1.85633C15.6256 1.38166 15.151 1.0901 14.5892 0.872321C14.0452 0.661297 13.4247 0.517473 12.5163 0.475872C11.606 0.43445 11.3163 0.424316 8.99802 0.424316H9.00069ZM8.23513 1.96209C8.46233 1.96173 8.71585 1.96209 9.00065 1.96209C11.2791 1.96209 11.5491 1.97026 12.4489 2.01115C13.2809 2.0492 13.7324 2.18822 14.0332 2.30502C14.4315 2.45969 14.7154 2.64458 15.0139 2.94325C15.3125 3.24192 15.4974 3.52637 15.6525 3.9246C15.7693 4.22504 15.9085 4.6766 15.9463 5.50861C15.9872 6.40818 15.9961 6.6784 15.9961 8.95576C15.9961 11.2331 15.9872 11.5033 15.9463 12.4029C15.9083 13.2349 15.7693 13.6865 15.6525 13.9869C15.4978 14.3851 15.3125 14.6687 15.0139 14.9672C14.7152 15.2659 14.4316 15.4508 14.0332 15.6054C13.7328 15.7228 13.2809 15.8614 12.4489 15.8995C11.5493 15.9404 11.2791 15.9493 9.00065 15.9493C6.72205 15.9493 6.452 15.9404 5.55244 15.8995C4.72043 15.8611 4.26887 15.7221 3.96789 15.6053C3.56966 15.4506 3.28521 15.2657 2.98654 14.967C2.68787 14.6684 2.50298 14.3846 2.34796 13.9862C2.23116 13.6858 2.09196 13.2342 2.05409 12.4022C2.0132 11.5026 2.00502 11.2324 2.00502 8.95363C2.00502 6.67485 2.0132 6.40604 2.05409 5.50648C2.09213 4.67447 2.23116 4.22291 2.34796 3.92211C2.50263 3.52388 2.68787 3.23943 2.98654 2.94076C3.28521 2.64209 3.56966 2.4572 3.96789 2.30218C4.26869 2.18484 4.72043 2.04618 5.55244 2.00795C6.33964 1.9724 6.64471 1.96173 8.23513 1.95995V1.96209ZM13.5557 3.37899C12.9904 3.37899 12.5317 3.83713 12.5317 4.40265C12.5317 4.96799 12.9904 5.42666 13.5557 5.42666C14.1211 5.42666 14.5797 4.96799 14.5797 4.40265C14.5797 3.83731 14.1211 3.37899 13.5557 3.37899ZM9.0007 4.57545C6.58059 4.57545 4.61843 6.5376 4.61843 8.95772C4.61843 11.3778 6.58059 13.3391 9.0007 13.3391C11.4208 13.3391 13.3823 11.3778 13.3823 8.95772C13.3823 6.5376 11.4208 4.57545 9.0007 4.57545ZM9.00067 6.11324C10.5715 6.11324 11.8451 7.38668 11.8451 8.95772C11.8451 10.5286 10.5715 11.8022 9.00067 11.8022C7.42963 11.8022 6.15619 10.5286 6.15619 8.95772C6.15619 7.38668 7.42963 6.11324 9.00067 6.11324Z" fill="#4667E8"/>
</svg>
