<svg width="16" height="14" viewBox="0 0 16 14" fill="none" xmlns="http://www.w3.org/2000/svg">
<path fill-rule="evenodd" clip-rule="evenodd" d="M7.5208 3.96262L7.55438 4.51625L6.99479 4.44846C4.95791 4.18859 3.17843 3.30729 1.66756 1.82716L0.928908 1.09275L0.73865 1.63509C0.33575 2.84405 0.593158 4.1208 1.43253 4.9795C1.8802 5.45405 1.77948 5.52184 1.00725 5.23937C0.73865 5.14898 0.503625 5.08119 0.481242 5.11508C0.4029 5.19418 0.6715 6.22236 0.884142 6.62911C1.17513 7.19404 1.76828 7.74768 2.4174 8.07534L2.96579 8.33521L2.31668 8.34651C1.68994 8.34651 1.66756 8.35781 1.73471 8.59508C1.95854 9.3295 2.84268 10.1091 3.82755 10.4481L4.52143 10.6853L3.91708 11.0469C3.02175 11.5666 1.96973 11.8604 0.917717 11.883C0.414092 11.8943 0 11.9395 0 11.9734C0 12.0864 1.36538 12.7191 2.15999 12.9677C4.54382 13.7021 7.37531 13.3857 9.50173 12.1316C11.0126 11.239 12.5235 9.46508 13.2286 7.74768C13.6091 6.83249 13.9896 5.16028 13.9896 4.35807C13.9896 3.83833 14.0232 3.77054 14.6499 3.14911C15.0192 2.78755 15.3662 2.3921 15.4333 2.27911C15.5452 2.06444 15.534 2.06444 14.9633 2.25651C14.012 2.59548 13.8777 2.55028 14.3477 2.04184C14.6947 1.68028 15.1088 1.02496 15.1088 0.832879C15.1088 0.798983 14.9409 0.855476 14.7506 0.957165C14.5492 1.07015 14.1015 1.23963 13.7658 1.34132L13.1614 1.5334L12.613 1.16054C12.3108 0.957165 11.8856 0.731191 11.6617 0.663398C11.0909 0.505217 10.218 0.527814 9.70318 0.708593C8.30422 1.21703 7.42008 2.52768 7.5208 3.96262Z" fill="#4667E8"/>
</svg>
