<svg width="41" height="41" viewBox="0 0 41 41" fill="none" xmlns="http://www.w3.org/2000/svg">
<path d="M7.98874 11.3641C7.98874 7.42995 11.178 4.24072 15.1121 4.24072C19.0462 4.24072 22.2354 7.42995 22.2354 11.3641C22.2354 15.2982 19.0462 18.4874 15.1121 18.4874C11.178 18.4874 7.98874 15.2982 7.98874 11.3641Z" fill="#4667E8"/>
<path d="M32.5135 12.8324C32.5135 12.142 31.9539 11.5824 31.2635 11.5824C30.5732 11.5824 30.0135 12.142 30.0135 12.8324V15.9874H26.8585C26.1682 15.9874 25.6085 16.547 25.6085 17.2374C25.6085 17.9277 26.1682 18.4874 26.8585 18.4874H30.0135V21.6424C30.0135 22.3327 30.5732 22.8924 31.2635 22.8924C31.9539 22.8924 32.5135 22.3327 32.5135 21.6424V18.4874H35.6685C36.3589 18.4874 36.9185 17.9277 36.9185 17.2374C36.9185 16.547 36.3589 15.9874 35.6685 15.9874H32.5135V12.8324Z" fill="#4667E8"/>
<path d="M11.8815 21.8601C7.29864 21.8601 3.5835 25.5752 3.5835 30.1581C3.5835 33.4434 6.2468 36.1067 9.53216 36.1067H20.6915C23.9769 36.1067 26.6402 33.4434 26.6402 30.1581C26.6402 25.5752 22.925 21.8601 18.3422 21.8601H11.8815Z" fill="#4667E8"/>
</svg>
